<?xml version="1.0" standalone="no"?>
<!DOCTYPE svg PUBLIC "-//W3C//DTD SVG 20010904//EN"
 "http://www.w3.org/TR/2001/REC-SVG-20010904/DTD/svg10.dtd">
<svg version="1.0" xmlns="http://www.w3.org/2000/svg"
 width="2000.000000pt" height="1200.000000pt" viewBox="0 0 2000.000000 1200.000000"
 preserveAspectRatio="xMidYMid meet">

<g transform="translate(0.000000,1200.000000) scale(0.100000,-0.100000)"
fill="#000000" stroke="none">
<path d="M9896 11658 c-9 -12 -16 -42 -16 -65 0 -23 -11 -71 -23 -105 -13 -35
-27 -89 -31 -120 -3 -32 -15 -80 -26 -108 -11 -28 -20 -64 -20 -80 0 -16 -13
-70 -30 -120 -16 -50 -30 -100 -30 -113 0 -12 -6 -32 -14 -43 -8 -11 -22 -51
-31 -89 -8 -38 -20 -74 -25 -80 -5 -6 -14 -33 -20 -59 -6 -27 -22 -72 -35
-101 -14 -28 -25 -60 -25 -69 0 -9 -9 -29 -20 -44 -10 -15 -24 -45 -29 -67 -9
-40 -44 -131 -64 -170 -13 -25 -22 -42 -97 -195 -34 -69 -75 -145 -91 -170
-16 -25 -38 -63 -50 -85 -44 -84 -67 -124 -112 -192 -26 -39 -47 -73 -47 -77
0 -3 -19 -33 -42 -66 -24 -33 -48 -68 -53 -78 -32 -53 -64 -99 -79 -111 -10
-8 -26 -31 -37 -50 -28 -52 -47 -80 -106 -156 -30 -38 -53 -78 -53 -91 0 -13
-6 -24 -12 -24 -11 0 -80 -84 -128 -155 -8 -12 -24 -35 -35 -51 -10 -16 -41
-55 -67 -87 -26 -32 -48 -65 -48 -72 0 -8 -20 -39 -45 -70 -25 -31 -53 -68
-63 -84 -26 -43 -52 -81 -98 -141 -22 -30 -47 -67 -55 -82 -48 -91 -105 -186
-124 -208 -13 -14 -26 -36 -30 -50 -4 -14 -13 -32 -21 -40 -7 -9 -20 -31 -29
-50 -9 -19 -27 -53 -41 -75 -13 -22 -34 -58 -45 -80 -11 -22 -31 -55 -45 -74
-13 -19 -24 -42 -24 -52 0 -10 -4 -20 -9 -23 -13 -9 -91 -143 -91 -158 0 -7
-6 -25 -14 -40 -8 -14 -19 -43 -26 -65 -6 -21 -22 -58 -35 -83 -12 -25 -26
-61 -30 -80 -4 -19 -13 -44 -19 -55 -7 -11 -19 -38 -26 -60 -7 -22 -21 -53
-31 -70 -11 -16 -19 -44 -19 -60 0 -17 -11 -50 -24 -75 -13 -25 -26 -65 -30
-90 -4 -25 -14 -55 -22 -67 -8 -13 -21 -60 -29 -106 -8 -46 -21 -99 -29 -118
-7 -19 -17 -59 -21 -89 -4 -30 -15 -75 -25 -100 -10 -25 -21 -89 -24 -145 -4
-55 -17 -149 -28 -210 -20 -99 -22 -143 -21 -440 0 -292 2 -343 21 -440 11
-60 24 -153 27 -205 4 -52 15 -120 25 -150 10 -30 22 -80 25 -110 4 -30 15
-75 25 -100 10 -25 21 -70 25 -100 4 -30 15 -73 25 -95 10 -22 21 -56 25 -75
4 -19 18 -52 31 -72 13 -21 24 -45 24 -53 0 -14 33 -88 65 -145 8 -14 23 -44
34 -66 11 -23 24 -45 29 -48 6 -3 27 -36 47 -72 20 -36 56 -89 80 -118 23 -29
46 -62 49 -74 4 -11 18 -28 33 -37 14 -10 50 -41 79 -71 36 -36 67 -57 95 -64
33 -9 46 -21 72 -62 44 -70 171 -153 387 -251 158 -73 188 -85 219 -91 19 -3
42 -12 50 -20 14 -12 59 -27 131 -43 14 -3 27 -10 31 -14 3 -5 29 -13 58 -19
29 -5 67 -16 84 -24 18 -8 46 -18 62 -24 17 -5 48 -21 69 -36 21 -14 43 -26
48 -26 17 0 160 -125 221 -192 103 -114 193 -259 279 -448 14 -30 37 -80 52
-111 14 -31 26 -59 26 -63 0 -4 8 -26 19 -49 10 -23 22 -62 26 -87 4 -25 18
-66 31 -92 13 -26 24 -60 24 -76 0 -39 31 -67 58 -53 22 12 26 22 37 85 3 21
13 49 21 61 8 12 21 47 29 78 8 30 23 70 35 89 11 18 20 41 20 50 0 9 11 34
25 54 14 20 25 47 25 60 0 12 5 26 10 29 6 4 24 35 41 70 16 34 45 82 64 106
19 24 35 47 35 51 0 28 163 230 237 295 32 28 76 68 98 88 22 21 54 44 71 51
17 7 37 21 45 30 22 26 137 75 204 85 33 6 69 16 81 24 12 7 39 17 60 20 21 4
53 15 70 25 17 9 48 23 69 30 22 7 60 24 86 36 26 13 52 24 57 24 18 0 144 69
202 111 30 21 60 39 66 39 5 0 25 16 44 35 19 19 38 35 43 35 22 0 174 129
253 216 49 54 104 113 122 131 17 19 32 40 32 47 0 7 11 25 24 40 22 26 86
131 132 216 10 19 25 39 32 43 6 4 12 16 12 25 0 10 9 35 20 57 11 21 25 54
31 74 7 20 20 48 30 62 10 14 21 38 25 54 4 16 15 43 25 60 9 16 20 50 24 75
4 25 15 68 25 95 10 28 21 78 25 113 4 34 18 102 31 150 17 63 24 113 24 182
0 52 7 149 16 215 26 202 27 289 10 460 -10 88 -21 239 -26 335 -6 110 -16
205 -28 255 -11 44 -23 109 -26 144 -4 35 -16 86 -27 113 -10 27 -19 60 -19
73 0 14 -11 53 -24 87 -12 35 -26 85 -30 111 -4 26 -18 71 -32 100 -13 29 -24
63 -24 77 0 14 -11 48 -25 75 -13 28 -25 61 -25 73 0 13 -8 36 -19 50 -30 43
-68 124 -76 162 -4 19 -16 49 -26 66 -10 17 -19 38 -19 45 0 8 -9 30 -20 49
-11 19 -31 58 -44 86 -13 28 -29 55 -35 58 -6 4 -11 15 -11 25 0 10 -11 35
-25 55 -14 20 -25 45 -25 55 0 10 -9 26 -20 36 -25 23 -90 138 -90 159 0 9 -7
19 -15 22 -8 4 -15 12 -15 19 0 8 -24 49 -54 92 -29 43 -56 88 -60 99 -3 12
-20 33 -36 48 -17 14 -30 32 -30 39 0 12 -19 41 -97 156 -24 35 -43 65 -43 69
0 4 -10 18 -21 32 -11 14 -41 57 -66 95 -26 39 -59 86 -74 105 -15 19 -36 49
-46 67 -10 17 -45 70 -78 118 -33 47 -67 96 -75 109 -8 12 -28 40 -43 62 -16
21 -62 91 -103 154 -40 63 -90 139 -111 169 -21 30 -42 64 -48 76 -5 11 -30
52 -55 90 -25 39 -50 77 -55 86 -6 9 -28 42 -49 75 -22 32 -56 91 -76 131 -20
39 -48 87 -61 105 -25 32 -69 127 -69 146 0 6 -19 41 -42 78 -23 38 -47 87
-53 109 -6 22 -26 66 -45 98 -57 96 -60 101 -60 128 0 14 -11 43 -25 63 -14
20 -25 45 -25 54 -1 9 -14 42 -30 72 -17 30 -30 68 -30 84 0 16 -9 43 -19 60
-11 17 -24 58 -30 90 -6 33 -17 69 -25 81 -8 12 -17 44 -21 71 -4 27 -15 63
-25 80 -9 17 -20 52 -24 79 -5 27 -16 71 -27 97 -10 27 -25 88 -33 136 -8 48
-21 105 -29 127 -9 22 -16 65 -17 95 0 57 -19 100 -45 100 -8 0 -21 -10 -29
-22z m94 -1962 c10 -24 23 -47 29 -50 6 -4 11 -17 11 -29 0 -12 11 -41 25 -65
13 -23 27 -59 31 -80 4 -20 17 -55 30 -78 13 -22 24 -46 24 -53 0 -7 11 -27
25 -43 14 -17 44 -64 66 -104 23 -41 45 -76 50 -80 5 -3 9 -14 9 -24 0 -10 21
-42 46 -72 26 -29 53 -66 61 -83 22 -46 57 -102 79 -127 11 -13 37 -48 57 -78
20 -30 62 -90 94 -132 55 -73 133 -189 179 -266 12 -20 27 -38 33 -40 6 -2 27
-32 46 -67 20 -35 42 -69 50 -75 8 -7 15 -18 15 -25 0 -8 11 -26 23 -42 13
-15 27 -40 30 -54 4 -14 20 -42 36 -63 33 -41 121 -216 121 -240 0 -9 19 -46
43 -83 24 -37 49 -84 57 -103 7 -19 21 -49 31 -66 10 -17 21 -48 25 -70 3 -21
14 -53 25 -70 10 -17 19 -37 19 -44 0 -7 10 -29 22 -49 27 -42 53 -111 77
-201 10 -36 25 -79 34 -97 10 -18 17 -41 17 -52 0 -11 11 -50 25 -86 13 -36
27 -89 31 -118 4 -29 13 -67 21 -86 7 -19 20 -71 28 -115 7 -45 20 -97 29
-116 8 -19 19 -67 24 -105 6 -39 20 -113 31 -165 11 -52 21 -123 21 -156 0
-34 10 -115 22 -180 30 -157 33 -531 5 -659 -9 -44 -21 -120 -27 -168 -6 -49
-17 -105 -25 -125 -8 -20 -19 -65 -24 -99 -5 -34 -17 -73 -27 -88 -9 -14 -21
-46 -25 -72 -10 -52 -87 -252 -126 -328 -14 -27 -41 -71 -60 -96 -18 -26 -33
-54 -33 -62 0 -9 -6 -20 -13 -24 -7 -4 -30 -30 -51 -58 -39 -53 -133 -151
-185 -197 -41 -35 -196 -128 -214 -128 -8 0 -30 -11 -50 -24 -19 -13 -44 -27
-56 -31 -12 -3 -33 -17 -49 -29 -29 -25 -140 -75 -184 -83 -15 -3 -25 -9 -22
-14 3 -5 -5 -13 -18 -18 -93 -37 -155 -75 -215 -131 -64 -59 -121 -97 -160
-105 -19 -4 -33 -13 -33 -21 0 -8 -16 -31 -35 -51 -20 -20 -38 -48 -42 -62 -3
-14 -11 -33 -17 -41 -14 -17 -36 -65 -62 -130 -40 -102 -64 -94 -144 50 -68
122 -174 238 -263 289 -29 16 -63 41 -76 55 -14 14 -31 26 -38 26 -8 0 -31 11
-51 25 -20 14 -44 25 -53 25 -9 0 -28 9 -42 20 -14 11 -43 28 -64 36 -21 9
-50 25 -65 35 -14 11 -31 19 -38 19 -6 0 -26 11 -43 24 -18 13 -42 27 -55 31
-24 7 -193 118 -257 169 -22 17 -52 39 -66 48 -83 53 -165 139 -225 238 -15
25 -40 60 -56 78 -15 18 -28 38 -28 44 0 6 -6 19 -14 27 -7 9 -31 50 -52 91
-21 41 -46 84 -56 95 -23 27 -78 149 -78 175 0 12 -9 41 -20 66 -11 24 -25 65
-30 92 -5 26 -14 63 -19 82 -38 134 -80 438 -84 601 -3 118 -6 140 -25 171
-28 45 -28 62 0 107 21 33 24 53 29 216 4 102 14 214 23 259 9 43 21 120 26
170 4 50 18 125 29 166 12 41 21 89 21 108 0 18 9 58 20 90 12 31 25 78 30
104 5 27 18 67 29 90 10 24 24 66 29 93 6 28 20 68 32 90 11 21 20 46 20 55 0
8 9 29 20 45 11 17 20 41 20 55 0 14 14 52 30 85 16 33 30 65 30 72 0 6 12 35
26 65 14 29 37 78 52 108 14 30 30 64 35 75 6 11 17 32 24 48 7 15 19 39 26
55 18 37 47 94 82 162 29 55 32 60 80 147 25 45 50 85 56 89 6 3 17 22 25 40
20 47 142 236 206 317 67 86 227 273 340 400 48 54 88 105 88 113 0 8 4 13 8
10 5 -3 29 22 53 55 24 33 63 83 87 110 23 27 42 59 42 69 0 11 5 20 10 20 6
0 17 17 26 38 9 20 27 58 40 83 13 26 24 53 24 61 0 8 9 23 19 32 11 10 22 30
26 44 6 27 101 226 118 250 18 23 38 12 57 -32z"/>
<path d="M9895 6054 c-33 -7 -89 -18 -125 -24 -81 -13 -147 -30 -180 -47 -14
-7 -32 -13 -41 -13 -8 0 -30 -11 -49 -25 -19 -14 -38 -25 -43 -25 -18 0 -201
-169 -239 -219 -7 -10 -32 -42 -55 -71 -24 -28 -43 -61 -43 -72 0 -11 -13 -36
-30 -55 -24 -27 -30 -43 -30 -82 0 -37 -6 -54 -25 -75 l-25 -27 0 -258 0 -258
26 -38 c18 -27 26 -52 26 -82 0 -31 6 -51 23 -71 12 -15 26 -42 29 -59 4 -18
12 -35 17 -39 15 -9 89 -112 89 -123 0 -6 11 -18 25 -27 13 -9 27 -24 30 -33
3 -10 17 -23 30 -29 14 -6 25 -18 25 -26 0 -8 10 -18 23 -22 12 -3 45 -26 73
-50 28 -24 64 -49 80 -56 16 -7 42 -23 57 -35 20 -16 42 -23 74 -23 34 0 53
-6 75 -25 28 -24 35 -25 176 -26 354 -1 364 0 393 27 20 19 36 24 75 24 43 0
55 4 79 30 16 17 38 30 49 30 35 0 246 189 291 260 12 19 32 44 44 54 11 11
21 25 21 32 0 7 11 30 25 50 14 20 25 47 25 58 0 12 4 26 8 32 15 17 33 83 47
171 8 48 20 118 27 156 10 53 10 81 0 135 -7 37 -17 99 -23 137 -22 151 -97
353 -148 399 -12 11 -21 23 -21 27 0 10 -39 68 -71 106 -13 16 -46 44 -74 63
-27 19 -69 50 -93 68 -24 17 -48 32 -54 32 -6 0 -19 7 -28 15 -21 19 -222 85
-259 85 -16 0 -73 9 -126 20 -110 23 -100 22 -180 4z"/>
<path d="M15639 9111 c-16 -12 -49 -22 -90 -26 -38 -4 -89 -19 -125 -36 -33
-16 -68 -29 -78 -29 -9 0 -59 -22 -110 -49 -51 -26 -104 -51 -118 -54 -13 -4
-35 -16 -48 -27 -13 -11 -27 -20 -33 -20 -5 0 -40 -22 -78 -50 -38 -27 -71
-50 -74 -50 -4 0 -54 -43 -113 -96 -59 -53 -118 -103 -132 -112 -14 -9 -36
-26 -50 -38 -104 -93 -448 -284 -513 -284 -14 0 -38 -11 -54 -24 -15 -13 -43
-27 -62 -31 -19 -4 -54 -18 -79 -31 -25 -13 -55 -24 -66 -24 -12 0 -38 -11
-58 -25 -20 -14 -43 -25 -51 -25 -8 0 -31 -11 -51 -25 -20 -14 -39 -25 -41
-25 -12 0 -143 -65 -165 -82 -42 -32 -97 -66 -168 -103 -37 -20 -78 -46 -92
-59 -14 -12 -47 -37 -74 -54 -26 -17 -94 -75 -149 -129 -56 -54 -133 -127
-172 -162 -136 -124 -165 -154 -165 -173 0 -10 -7 -21 -15 -24 -21 -8 -19 -37
5 -81 11 -21 20 -51 20 -68 0 -16 11 -48 25 -70 14 -23 25 -56 25 -76 0 -20
11 -56 24 -81 13 -25 27 -64 31 -87 4 -23 16 -67 26 -96 10 -30 23 -84 28
-121 9 -61 31 -104 54 -104 5 0 52 44 105 98 175 177 219 215 467 407 30 23
157 103 185 117 14 7 36 19 50 29 14 9 41 22 61 28 20 6 44 20 54 31 10 11 33
24 52 31 19 6 70 31 114 55 43 24 82 44 86 44 3 0 22 12 42 28 50 37 101 72
107 72 4 0 26 14 51 30 24 17 49 30 54 30 18 0 309 230 365 288 11 12 33 22
48 22 14 0 35 9 46 20 11 11 22 20 25 20 9 0 5 -39 -4 -44 -7 -5 -12 -24 -25
-113 -2 -13 -8 -28 -13 -35 -5 -7 -8 -29 -7 -48 2 -19 -5 -55 -16 -80 -10 -25
-21 -85 -25 -135 -4 -49 -14 -102 -21 -117 -8 -15 -14 -49 -14 -75 0 -26 -9
-88 -21 -138 -11 -49 -24 -160 -30 -245 -5 -85 -16 -197 -24 -247 -29 -177
-38 -405 -32 -853 6 -402 8 -440 27 -500 34 -109 35 -155 7 -271 -20 -80 -27
-142 -32 -269 -3 -91 -15 -221 -26 -290 -12 -69 -24 -156 -28 -195 -9 -82 -45
-228 -73 -300 -11 -27 -24 -68 -28 -90 -5 -22 -18 -60 -29 -85 -11 -25 -21
-55 -21 -66 0 -20 -21 -72 -86 -211 -13 -28 -24 -59 -24 -67 0 -9 -4 -16 -8
-16 -8 0 -42 -64 -42 -79 0 -5 -20 -40 -45 -78 -25 -37 -45 -72 -45 -77 0 -6
-11 -21 -23 -35 -13 -15 -59 -78 -102 -141 -42 -63 -92 -131 -110 -150 -18
-19 -35 -42 -38 -50 -18 -52 -315 -366 -425 -452 -24 -18 -85 -67 -136 -109
-51 -42 -118 -91 -148 -108 -31 -18 -62 -39 -68 -46 -7 -8 -20 -15 -30 -15 -9
0 -37 -13 -61 -30 -24 -16 -51 -30 -59 -30 -9 0 -32 -11 -52 -25 -20 -14 -43
-25 -50 -25 -7 0 -33 -10 -58 -21 -72 -34 -248 -79 -345 -89 -49 -5 -128 -18
-175 -29 -56 -14 -121 -21 -190 -21 -114 0 -142 -8 -121 -33 8 -11 29 -15 66
-14 37 1 60 -4 72 -15 10 -9 38 -21 63 -28 80 -22 76 -20 60 -30 -8 -6 -13
-10 -10 -11 3 0 52 -7 110 -14 58 -7 133 -20 167 -29 58 -15 68 -15 150 3 48
10 123 22 165 26 42 4 109 17 148 31 40 13 83 24 96 24 14 0 51 11 84 25 33
14 67 25 76 25 9 0 39 12 68 26 28 15 62 32 76 39 14 6 34 16 45 22 11 6 56
28 100 49 44 20 84 43 88 51 4 7 17 13 29 13 11 0 40 14 65 30 24 17 48 30 53
30 5 0 24 12 42 28 18 15 56 43 83 62 28 18 52 37 55 40 3 3 21 16 40 28 47
29 85 64 93 85 3 9 15 17 26 17 20 0 146 109 192 166 14 18 50 55 81 83 63 57
168 182 168 200 0 6 4 11 9 11 4 0 28 28 52 61 24 34 61 82 82 106 20 24 37
48 37 53 0 5 14 29 30 53 17 25 30 48 30 51 0 3 19 34 43 69 24 35 58 94 76
132 18 39 36 77 41 85 5 8 28 53 51 100 22 47 51 105 64 130 12 25 26 65 30
90 4 25 16 57 26 71 10 14 23 48 29 75 6 27 17 63 25 81 9 17 20 55 25 84 6
29 15 58 21 65 6 7 15 43 20 81 5 37 18 91 29 118 13 34 22 97 30 200 6 83 18
191 27 240 12 73 16 174 16 530 0 388 -3 466 -23 660 -20 199 -23 280 -25 840
-3 612 7 919 34 1015 5 19 12 78 16 130 3 52 15 124 25 160 10 36 21 88 25
115 4 28 17 77 30 110 13 33 26 79 29 102 3 23 13 54 21 70 23 43 65 154 76
196 5 20 18 54 29 75 11 20 20 40 20 45 0 8 48 114 80 177 10 19 21 46 25 60
4 14 15 36 25 50 10 14 21 36 25 50 4 14 19 41 32 62 42 63 16 112 -38 69z"/>
<path d="M4113 9079 c-18 -19 -16 -31 12 -69 14 -19 25 -43 25 -54 0 -19 26
-80 66 -158 66 -130 121 -261 139 -336 8 -29 20 -64 29 -76 8 -13 18 -41 22
-62 3 -21 17 -65 30 -96 13 -32 24 -67 24 -78 0 -11 11 -53 25 -92 14 -39 25
-86 25 -103 0 -18 11 -65 23 -106 13 -41 27 -108 31 -149 4 -41 14 -109 22
-150 8 -41 21 -163 29 -270 8 -107 21 -238 30 -290 22 -136 21 -354 -4 -525
-12 -88 -22 -226 -26 -370 -4 -126 -13 -288 -22 -360 -23 -205 -28 -642 -9
-800 9 -71 21 -213 27 -315 6 -114 17 -214 29 -260 10 -41 21 -106 24 -143 4
-37 15 -90 26 -117 10 -27 22 -72 26 -102 4 -29 18 -81 31 -116 12 -34 23 -77
23 -96 0 -18 11 -54 25 -80 14 -26 25 -62 25 -80 0 -19 10 -46 25 -66 14 -19
25 -42 25 -52 0 -10 11 -36 25 -58 14 -22 25 -45 25 -52 0 -7 8 -27 19 -43 10
-17 23 -47 30 -67 6 -19 21 -44 31 -53 11 -10 20 -31 20 -46 0 -15 11 -40 23
-56 13 -15 27 -41 31 -58 4 -16 16 -39 26 -50 10 -11 21 -31 25 -45 4 -14 17
-36 27 -50 11 -14 37 -52 59 -85 61 -94 71 -108 95 -135 12 -14 25 -35 29 -48
3 -12 11 -20 16 -17 5 4 9 0 9 -7 0 -17 137 -172 155 -176 8 -2 17 -12 20 -22
3 -10 14 -22 25 -25 10 -3 25 -16 33 -28 21 -33 177 -187 189 -187 5 0 22 -12
37 -27 44 -46 162 -143 172 -143 11 0 78 -47 94 -66 11 -13 191 -121 240 -144
17 -8 37 -19 45 -25 8 -6 33 -17 55 -24 22 -8 46 -18 53 -24 7 -6 34 -18 60
-28 26 -9 83 -30 127 -47 211 -78 263 -93 370 -107 55 -6 128 -20 161 -29 51
-14 76 -15 155 -6 52 5 105 12 119 14 14 3 76 12 137 20 77 9 123 21 146 35
19 12 43 21 54 21 11 0 30 9 43 20 13 11 31 20 40 20 10 0 23 6 29 14 21 25
-11 33 -154 39 -127 4 -249 21 -450 62 -154 31 -221 47 -252 61 -18 8 -50 21
-70 28 -21 7 -69 30 -108 51 -38 20 -99 53 -135 72 -36 19 -76 45 -90 57 -14
12 -45 35 -70 51 -25 16 -74 53 -110 82 -36 29 -94 76 -130 104 -84 65 -184
163 -235 228 -22 29 -80 100 -128 159 -49 59 -95 121 -104 137 -8 17 -23 39
-33 50 -26 30 -120 172 -120 182 0 5 -16 28 -35 50 -19 23 -35 45 -35 50 0 14
-60 122 -71 128 -5 4 -9 14 -9 23 0 9 -14 44 -30 77 -16 33 -30 69 -30 80 0
11 -11 43 -25 70 -13 28 -25 64 -25 81 0 17 -11 48 -25 68 -14 20 -25 44 -25
52 0 8 -10 40 -21 72 -12 31 -25 85 -30 119 -4 34 -15 76 -24 93 -9 16 -20 67
-26 111 -5 45 -18 118 -29 163 -36 152 -63 878 -75 2021 -6 489 -8 552 -28
665 -18 108 -21 166 -21 418 -1 318 -1 319 54 307 24 -6 47 -27 100 -93 14
-17 30 -31 36 -32 6 0 21 -11 34 -25 13 -14 28 -25 34 -25 5 0 40 -20 77 -45
37 -25 71 -45 76 -45 5 0 24 -16 43 -35 19 -19 38 -35 43 -35 15 0 191 -101
203 -117 12 -15 54 -39 185 -106 92 -48 125 -69 234 -146 78 -57 112 -82 164
-127 20 -17 52 -41 71 -54 46 -31 171 -139 189 -164 8 -11 22 -27 30 -35 9 -9
49 -60 89 -114 44 -59 80 -97 91 -97 22 0 41 40 41 88 0 21 7 47 15 59 8 12
21 52 29 90 15 73 47 174 77 238 11 22 23 61 29 86 5 25 16 58 25 75 8 16 15
41 15 56 0 15 7 43 16 61 15 32 15 38 0 79 -12 30 -32 55 -63 79 -50 38 -142
120 -278 250 -49 47 -108 98 -130 114 -21 16 -72 58 -111 92 -40 35 -78 63
-84 63 -11 0 -25 9 -103 70 -18 14 -59 38 -92 54 -33 16 -67 33 -75 37 -60 35
-296 149 -307 149 -7 0 -39 14 -70 30 -31 17 -62 30 -69 30 -7 0 -30 11 -50
25 -20 14 -44 25 -53 25 -10 0 -32 11 -51 25 -19 14 -45 25 -59 25 -24 0 -154
70 -166 90 -3 6 -14 10 -24 10 -10 0 -29 10 -42 21 -13 12 -37 28 -54 35 -16
7 -52 31 -80 53 -27 22 -67 50 -88 61 -21 12 -84 65 -140 119 -189 181 -196
187 -302 240 -22 11 -53 30 -70 41 -16 11 -38 20 -48 20 -11 0 -32 9 -48 21
-16 11 -46 23 -66 26 -21 3 -59 17 -85 30 -57 30 -224 45 -245 22z"/>
</g>
</svg>
